<svg width="13" height="14" viewBox="0 0 13 14" fill="none" xmlns="http://www.w3.org/2000/svg">
<path d="M0.749963 5.89501C2.19009 9.03044 4.74851 11.5156 7.92446 12.864L8.43446 13.0913C8.99923 13.3427 9.63465 13.3868 10.2287 13.2157C10.8228 13.0446 11.3375 12.6694 11.682 12.156L12.3487 11.163C12.453 11.0073 12.4953 10.8181 12.4671 10.6328C12.4389 10.4475 12.3424 10.2794 12.1965 10.1618L9.93746 8.33926C9.85879 8.27583 9.76811 8.22895 9.67087 8.20145C9.57363 8.17394 9.47183 8.16637 9.37159 8.17919C9.27135 8.19201 9.17474 8.22495 9.08755 8.27604C9.00036 8.32714 8.92439 8.39532 8.86421 8.47651L8.16521 9.41926C6.37092 8.53309 4.91856 7.08046 4.03271 5.28601L4.97471 4.58701C5.0559 4.52683 5.12408 4.45086 5.17517 4.36367C5.22627 4.27648 5.25921 4.17987 5.27203 4.07963C5.28485 3.97939 5.27728 3.87759 5.24977 3.78035C5.22226 3.68311 5.17539 3.59243 5.11196 3.51376L3.28946 1.25476C3.17179 1.10885 3.00374 1.01229 2.81842 0.984111C2.6331 0.955932 2.44394 0.99817 2.28821 1.10251L1.28846 1.77301C0.772013 2.11934 0.39528 2.63777 0.225377 3.23593C0.0554733 3.83409 0.103433 4.47315 0.360713 5.03926L0.749963 5.89501Z" fill="black"/>
</svg>
